<mxfile host="app.diagrams.net" modified="2024-03-14T14:25:30.686Z" agent="Mozilla/5.0 (Windows NT 10.0; Win64; x64) AppleWebKit/537.36 (KHTML, like Gecko) Chrome/122.0.0.0 Safari/537.36" version="24.0.6" etag="lMDQR-DLefS6lZP3GJcz" type="github">
  <diagram name="Page-1" id="aD4A3R_L4B-13P84fNql">
    <mxGraphModel>
      <root>
        <mxCell id="0" />
        <mxCell id="1" parent="0" />
      </root>
    </mxGraphModel>
  </diagram>
</mxfile>
